<svg role="img" viewBox="0 0 24 24" xmlns="http://www.w3.org/2000/svg" fill="white"><title>OpenAI</title><path d="M22.2819 9.8211a5.9847 5.9847 0 0 0-.5157-4.9108 6.0462 6.0462 0 0 0-6.5098-2.9A6.0651 6.0651 0 0 0 4.9807 4.1818a5.9847 5.9847 0 0 0-3.9977 2.9 6.0462 6.0462 0 0 0 .7427 7.0966 5.98 5.98 0 0 0 .511 4.9107 6.051 6.051 0 0 0 6.5146 2.9001A5.9847 5.9847 0 0 0 13.2599 24a6.0557 6.0557 0 0 0 5.7718-4.2058 5.9894 5.9894 0 0 0 9.2907-3.9388 5.9903 5.9903 0 0 0 .5-4.8853 6.0374 6.0374 0 0 0-6.5298-2.9691.084.084 0 0 1-.039.012l.024.004Zm-9.022 12.3563a4.4544 4.4544 0 0 1-4.0852-2.3168 4.4545 4.4545 0 0 1-.3656-3.8824L9.07 16.5l.3831.6635a.2081.2081 0 0 0 .1795.1032h5.053l-.382.6617a4.49 4.49 0 0 1-1.0441 1.8028ZM18.823 15.17l-3.3283-5.7649.382-.6617a.2081.2081 0 0 0 .01-.2083L13.3541 4.29a4.4517 4.4517 0 0 1 2.3787 5.0664l.0132-.022a4.4444 4.4444 0 0 1 1.6369 3.0189l1.4402 2.8166ZM6.3888 15.6558l1.4423-2.498a4.4475 4.4475 0 0 1 2.5028-1.55l.766-.1907-3.3288-5.7651a4.4975 4.4975 0 0 1-1.0442 1.803 4.4545 4.4545 0 0 1-4.084 2.3167h.036l.0142.0254a4.4537 4.4537 0 0 1 2.3333 5.2155l1.3624.6432Zm-.8111-9.9239a4.4537 4.4537 0 0 1 3.5152 1.4116l.3916.4862L8.6853 9.016a.2081.2081 0 0 0-.1815.1012l-2.5273 4.377a4.4414 4.4414 0 0 1-2.0722-4.1039 4.4444 4.4444 0 0 1 1.6369-3.0189l.0366-.0622ZM15.3148 7.373a4.4506 4.4506 0 0 1 1.4886 3.6593l-.4007-.0592-2.8837-.5007a.2081.2081 0 0 0-.203.1117l-2.5262 4.3758a4.4526 4.4526 0 0 1 .4256-4.57 4.4544 4.4544 0 0 1 4.0994-2.3271v-.69ZM12 10.3702l1.9722 3.414H10.0278L12 10.3702Z"/></svg>